<mxfile host="app.diagrams.net" modified="2023-07-04T05:09:05.346Z" agent="Mozilla/5.0 (Macintosh; Intel Mac OS X 10_15_7) AppleWebKit/605.1.15 (KHTML, like Gecko) Version/16.6 Safari/605.1.15" etag="16N2eIeusgEoUI3HTDAX" version="21.5.2" type="github">
  <diagram name="Page-1" id="yaolthrJPbwIkEokOWz_">
    <mxGraphModel dx="597" dy="448" grid="1" gridSize="10" guides="1" tooltips="1" connect="1" arrows="1" fold="1" page="1" pageScale="1" pageWidth="850" pageHeight="1100" math="0" shadow="0">
      <root>
        <mxCell id="0" />
        <mxCell id="1" parent="0" />
        <mxCell id="lb98eJrzJXSdnTz772ih-2" value="Argon" style="rounded=0;whiteSpace=wrap;html=1;rotation=-90;" vertex="1" parent="1">
          <mxGeometry x="240" y="230" width="90" height="50" as="geometry" />
        </mxCell>
        <mxCell id="lb98eJrzJXSdnTz772ih-3" value="Potentiometer" style="shape=cylinder3;boundedLbl=1;backgroundOutline=1;size=15;rotation=89;textDirection=ltr;whiteSpace=wrap;html=1;verticalAlign=top;" vertex="1" parent="1">
          <mxGeometry x="184.74" y="55" width="30" height="80" as="geometry" />
        </mxCell>
        <mxCell id="lb98eJrzJXSdnTz772ih-4" value="LEDgreen" style="shape=cylinder3;whiteSpace=wrap;html=1;boundedLbl=1;backgroundOutline=1;size=15;" vertex="1" parent="1">
          <mxGeometry x="380" y="70" width="40" height="50" as="geometry" />
        </mxCell>
        <mxCell id="lb98eJrzJXSdnTz772ih-5" value="LEDyellow" style="shape=cylinder3;whiteSpace=wrap;html=1;boundedLbl=1;backgroundOutline=1;size=15;" vertex="1" parent="1">
          <mxGeometry x="450" y="70" width="40" height="50" as="geometry" />
        </mxCell>
        <mxCell id="lb98eJrzJXSdnTz772ih-6" value="LEDblue" style="shape=cylinder3;whiteSpace=wrap;html=1;boundedLbl=1;backgroundOutline=1;size=15;" vertex="1" parent="1">
          <mxGeometry x="520" y="70" width="40" height="50" as="geometry" />
        </mxCell>
        <mxCell id="lb98eJrzJXSdnTz772ih-7" value="Oled display" style="rounded=0;whiteSpace=wrap;html=1;" vertex="1" parent="1">
          <mxGeometry x="480" y="200" width="140" height="120" as="geometry" />
        </mxCell>
        <mxCell id="lb98eJrzJXSdnTz772ih-8" value="VCNL4040" style="whiteSpace=wrap;html=1;aspect=fixed;" vertex="1" parent="1">
          <mxGeometry x="390" y="370" width="80" height="80" as="geometry" />
        </mxCell>
        <mxCell id="lb98eJrzJXSdnTz772ih-9" value="TMP" style="shape=cylinder3;whiteSpace=wrap;html=1;boundedLbl=1;backgroundOutline=1;size=15;" vertex="1" parent="1">
          <mxGeometry x="80" y="150" width="30" height="60" as="geometry" />
        </mxCell>
        <mxCell id="lb98eJrzJXSdnTz772ih-10" value="BLYNK CLOUD" style="ellipse;whiteSpace=wrap;html=1;" vertex="1" parent="1">
          <mxGeometry x="94.74000000000001" y="360" width="120" height="80" as="geometry" />
        </mxCell>
        <mxCell id="lb98eJrzJXSdnTz772ih-11" value="" style="endArrow=classic;html=1;rounded=0;entryX=1;entryY=0.25;entryDx=0;entryDy=0;exitX=1;exitY=0;exitDx=0;exitDy=15;exitPerimeter=0;" edge="1" parent="1" source="lb98eJrzJXSdnTz772ih-3" target="lb98eJrzJXSdnTz772ih-2">
          <mxGeometry width="50" height="50" relative="1" as="geometry">
            <mxPoint x="240" y="120" as="sourcePoint" />
            <mxPoint x="290" y="70" as="targetPoint" />
          </mxGeometry>
        </mxCell>
        <mxCell id="lb98eJrzJXSdnTz772ih-12" value="" style="endArrow=classic;html=1;rounded=0;entryX=0.75;entryY=0;entryDx=0;entryDy=0;" edge="1" parent="1" target="lb98eJrzJXSdnTz772ih-2">
          <mxGeometry width="50" height="50" relative="1" as="geometry">
            <mxPoint x="110" y="190" as="sourcePoint" />
            <mxPoint x="258" y="230" as="targetPoint" />
          </mxGeometry>
        </mxCell>
        <mxCell id="lb98eJrzJXSdnTz772ih-13" value="" style="endArrow=classic;html=1;rounded=0;entryX=0.145;entryY=1;entryDx=0;entryDy=-4.35;entryPerimeter=0;" edge="1" parent="1" target="lb98eJrzJXSdnTz772ih-4">
          <mxGeometry width="50" height="50" relative="1" as="geometry">
            <mxPoint x="310" y="210" as="sourcePoint" />
            <mxPoint x="360" y="160" as="targetPoint" />
          </mxGeometry>
        </mxCell>
        <mxCell id="lb98eJrzJXSdnTz772ih-14" value="" style="endArrow=classic;html=1;rounded=0;entryX=0.5;entryY=1;entryDx=0;entryDy=0;entryPerimeter=0;" edge="1" parent="1" target="lb98eJrzJXSdnTz772ih-5">
          <mxGeometry width="50" height="50" relative="1" as="geometry">
            <mxPoint x="310" y="240" as="sourcePoint" />
            <mxPoint x="360" y="190" as="targetPoint" />
          </mxGeometry>
        </mxCell>
        <mxCell id="lb98eJrzJXSdnTz772ih-15" value="" style="endArrow=classic;html=1;rounded=0;entryX=0.3;entryY=1.06;entryDx=0;entryDy=0;entryPerimeter=0;" edge="1" parent="1" target="lb98eJrzJXSdnTz772ih-6">
          <mxGeometry width="50" height="50" relative="1" as="geometry">
            <mxPoint x="310" y="260" as="sourcePoint" />
            <mxPoint x="360" y="210" as="targetPoint" />
          </mxGeometry>
        </mxCell>
      </root>
    </mxGraphModel>
  </diagram>
</mxfile>
